<svg xmlns="http://www.w3.org/2000/svg" viewBox="0 0 100 100" fill="none">
  <rect width="100" height="100" rx="18" fill="#fdd044"/>
  <rect x="8" y="8" width="84" height="84" rx="12" fill="#2a2a2a"/>
  <rect x="14" y="14" width="72" height="72" rx="4" fill="#fdd044"/>
  <!-- 8x8 grid -->
  <g stroke="#2a2a2a" stroke-width="0.9" opacity="0.35">
    <path d="M23 14v72M32 14v72M41 14v72M50 14v72M59 14v72M68 14v72M77 14v72"/>
    <path d="M14 23h72M14 32h72M14 41h72M14 50h72M14 59h72M14 68h72M14 77h72"/>
  </g>
  <g stroke="#2a2a2a" stroke-width="2.2">
    <path d="M50 14v72M14 50h72"/>
  </g>
  <rect x="14" y="14" width="72" height="72" rx="4" stroke="#2a2a2a" stroke-width="2.2" fill="none"/>
  <!-- house on dark ink cells -->
  <g fill="#2a2a2a">
    <rect x="41" y="23" width="9" height="9"/>
    <rect x="32" y="32" width="27" height="9"/>
    <rect x="23" y="41" width="45" height="9"/>
    <rect x="23" y="50" width="18" height="27"/>
    <rect x="50" y="50" width="18" height="27"/>
    <rect x="23" y="68" width="45" height="9"/>
  </g>
  <g fill="#fdd044">
    <rect x="41" y="59" width="9" height="18"/>
  </g>
</svg>
